<svg width="15" height="18" viewBox="0 0 15 18" fill="none" xmlns="http://www.w3.org/2000/svg">
<path d="M12.5242 9.56303C12.5033 7.28691 14.4273 6.19419 14.5143 6.14091C13.4316 4.59365 11.7467 4.38169 11.1456 4.35675C9.71245 4.21506 8.34778 5.18082 7.62134 5.18082C6.89491 5.18082 5.77161 4.37716 4.58332 4.39983C3.01905 4.4225 1.57895 5.28737 0.773602 6.65441C-0.84985 9.40547 0.359327 13.4828 1.93984 15.7158C2.71385 16.8074 3.63524 18.0373 4.84673 17.9919C6.01413 17.9466 6.4551 17.2551 7.86387 17.2551C9.27264 17.2551 9.66951 17.9919 10.9031 17.9704C12.1575 17.9466 12.9536 16.855 13.7218 15.76C14.6083 14.4927 14.975 13.2663 14.9959 13.2016C14.9681 13.1903 12.5497 12.2846 12.5242 9.56303Z" fill="#B3B3B3"/>
<path d="M10.2068 2.87953C10.8496 2.11893 11.2836 1.06134 11.1641 0.00720215C10.238 0.0435142 9.11708 0.61025 8.45213 1.37085C7.85684 2.04306 7.33465 3.11987 7.47616 4.15255C8.50899 4.23076 9.56378 3.63901 10.2068 2.87953Z" fill="#B3B3B3"/>
</svg>
